<?xml version="1.0" encoding="UTF-8"?>
<!-- 
    Just a silly little example logo, in SVG format. Please don't actually use
    the Modulo logo here, but instead use your own logo as you build your site!

    Consider using Inkscape, a free software GUI SVG editor, which is what was
    used for this logo:
        http://www.inkscape.org/
-->
<svg width="26.779mm" height="30.533mm" version="1.1" viewBox="0 0 26.779 30.533" xmlns="http://www.w3.org/2000/svg" xmlns:cc="http://creativecommons.org/ns#" xmlns:dc="http://purl.org/dc/elements/1.1/" xmlns:rdf="http://www.w3.org/1999/02/22-rdf-syntax-ns#">
 <defs>
  <filter id="filter1090" x="-.30982" y="-.27499" width="1.6196" height="1.55" color-interpolation-filters="sRGB">
   <feMorphology in="SourceAlpha" radius="4.3" result="result91"/>
   <feComposite in="SourceGraphic" in2="result91" operator="out"/>
   <feGaussianBlur result="result0" stdDeviation="1.2"/>
   <feDiffuseLighting>
    <feDistantLight azimuth="225" elevation="66"/>
   </feDiffuseLighting>
   <feBlend in2="SourceGraphic" mode="multiply"/>
   <feComposite in2="SourceAlpha" operator="in"/>
  </filter>
  <filter id="filter1106" x="-.30982" y="-.28155" width="1.6196" height="1.5631" color-interpolation-filters="sRGB">
   <feMorphology in="SourceAlpha" radius="4.3" result="result91"/>
   <feComposite in="SourceGraphic" in2="result91" operator="out"/>
   <feGaussianBlur result="result0" stdDeviation="1.2"/>
   <feDiffuseLighting>
    <feDistantLight azimuth="225" elevation="66"/>
   </feDiffuseLighting>
   <feBlend in2="SourceGraphic" mode="multiply"/>
   <feComposite in2="SourceAlpha" operator="in"/>
  </filter>
  <filter id="filter1122" x="-.14611" y="-.625" width="1.2922" height="2.25" color-interpolation-filters="sRGB">
   <feMorphology in="SourceAlpha" radius="4.3" result="result91"/>
   <feComposite in="SourceGraphic" in2="result91" operator="out"/>
   <feGaussianBlur result="result0" stdDeviation="1.2"/>
   <feDiffuseLighting>
    <feDistantLight azimuth="225" elevation="66"/>
   </feDiffuseLighting>
   <feBlend in2="SourceGraphic" mode="multiply"/>
   <feComposite in2="SourceAlpha" operator="in"/>
  </filter>
 </defs>
 <metadata>
  <rdf:RDF>
   <cc:Work rdf:about="">
    <dc:format>image/svg+xml</dc:format>
    <dc:type rdf:resource="http://purl.org/dc/dcmitype/StillImage"/>
   </cc:Work>
  </rdf:RDF>
 </metadata>
 <g transform="translate(-53.512 -83.674)" fill="#ffffff88" stroke="#fff">
  <rect transform="matrix(.68183 -.73151 .55652 .83084 -104.89 -1.4174)" x="75.493" y="196.15" width="27.485" height="6.4254" filter="url(#filter1122)" stroke-width="2.2718"/>
  <g transform="translate(-103.19 1.0395)" filter="url(#filter1106)" stroke-width=".95877">
   <path d="m158.97 91.361 0.0585 0.40154c0.14158 0.97137 0.69084 2.2812 1.2172 2.9027l0.2217 0.32241c0.56771-0.57276 1.1688-1.1684 1.7388-1.7389-0.25378-0.42925-0.58873-1.0246-0.72886-1.6552l-0.0482-0.23249h-2.4591zm0-0.33876c0.8197 3e-6 1.6394 0 2.4591 0l0.0482-0.23249c0.14013-0.63059 0.47508-1.226 0.72886-1.6552-0.56995-0.57053-1.171-1.1661-1.7388-1.7389l-0.22169 0.32241c-0.52637 0.62145-1.0756 1.9313-1.2172 2.9027zm1.9233 4.4511 0.32535 0.24262c0.78697 0.58675 2.1017 1.1245 2.9133 1.1917l0.38519 0.0314c-4e-3 -0.80644-2.5e-4 -1.6129-6.3e-4 -2.4194-0.48297-0.12408-1.1408-0.30815-1.6858-0.65495l-0.19848-0.13031c-0.57965 0.57965-1.1593 1.1593-1.7389 1.7389zm0-8.5636c0.57965 0.57965 1.1593 1.1594 1.7389 1.7391l0.19848-0.1303c0.54498-0.34682 1.2028-0.53104 1.6858-0.65512 3.2e-4 -0.80644-3e-3 -1.6128 6.3e-4 -2.4192l-0.38519 0.03123c-0.81162 0.06724-2.1263 0.60512-2.9133 1.1919zm4.0375 10.112 0.40154-0.0585c0.97136-0.14157 2.2812-0.69083 2.9027-1.2172l0.32257-0.22169c-0.57276-0.56771-1.1686-1.169-1.7391-1.7389-0.42925 0.25378-1.0246 0.58873-1.6552 0.72885l-0.23249 0.0482v2.4593zm0-9.2019 0.23249 0.04823c0.63059 0.14012 1.226 0.47524 1.6552 0.72902 0.57052-0.56995 1.1663-1.1712 1.7391-1.7389l-0.32257-0.22169c-0.62145-0.52637-1.9313-1.0756-2.9027-1.2172l-0.40154-0.05853v2.4591z"/>
   <path d="m170.06 91.56-0.0585-0.40154c-0.14158-0.97137-0.69084-2.2812-1.2172-2.9027l-0.2217-0.32241c-0.56771 0.57276-1.1688 1.1684-1.7388 1.7389 0.25378 0.42925 0.58873 1.0246 0.72886 1.6552l0.0482 0.23249h2.4591zm0 0.33876c-0.8197-3e-6 -1.6394 0-2.4591 0l-0.0482 0.23249c-0.14013 0.63059-0.47508 1.226-0.72886 1.6552 0.56995 0.57053 1.171 1.1661 1.7388 1.7389l0.22169-0.32241c0.52637-0.62145 1.0756-1.9313 1.2172-2.9027zm-1.9233-4.4511-0.32535-0.24262c-0.78697-0.58675-2.1017-1.1245-2.9133-1.1917l-0.38519-0.0314c4e-3 0.80644 2.5e-4 1.6129 6.3e-4 2.4194 0.48297 0.12408 1.1408 0.30815 1.6858 0.65495l0.19848 0.13031c0.57965-0.57965 1.1593-1.1593 1.7389-1.7389zm0 8.5636c-0.57965-0.57965-1.1593-1.1594-1.7389-1.7391l-0.19848 0.1303c-0.54498 0.34682-1.2028 0.53104-1.6858 0.65512-3.2e-4 0.80644 3e-3 1.6128-6.4e-4 2.4192l0.38519-0.03123c0.81162-0.06724 2.1263-0.60512 2.9133-1.1919zm-4.0375-10.112-0.40154 0.0585c-0.97136 0.14157-2.2812 0.69083-2.9027 1.2172l-0.32257 0.22169c0.57276 0.56771 1.1686 1.169 1.7391 1.7389 0.42925-0.25378 1.0246-0.58873 1.6552-0.72885l0.23249-0.0482v-2.4593zm0 9.2019-0.23249-0.04823c-0.63059-0.14012-1.226-0.47524-1.6552-0.72902-0.57052 0.56995-1.1663 1.1712-1.7391 1.7389l0.32257 0.22169c0.62145 0.52637 1.9313 1.0756 2.9027 1.2172l0.40154 0.05853v-2.4591z"/>
  </g>
  <g transform="translate(-112.64 -10.961)" filter="url(#filter1090)" stroke-width=".95877">
   <path d="m179.83 115.34 0.0585 0.40154c0.14158 0.97137 0.69084 2.2812 1.2172 2.9027l0.2217 0.32241c0.56771-0.57276 1.1688-1.1684 1.7388-1.7389-0.25378-0.42925-0.58873-1.0246-0.72886-1.6552l-0.0482-0.23249h-2.4591zm0-0.33876c0.8197 1e-5 1.6394 0 2.4591 0l0.0482-0.23248c0.14013-0.63059 0.47508-1.226 0.72886-1.6552-0.56995-0.57053-1.171-1.1662-1.7388-1.7389l-0.22169 0.3224c-0.52637 0.62146-1.0756 1.9313-1.2172 2.9027zm1.9233 4.4511 0.32535 0.24262c0.78697 0.58675 2.1017 1.1245 2.9133 1.1917l0.38519 0.0314c-4e-3 -0.80644-2.5e-4 -1.6129-6.4e-4 -2.4194-0.48297-0.12408-1.1408-0.30815-1.6858-0.65495l-0.19848-0.13031c-0.57965 0.57965-1.1593 1.1593-1.7389 1.7389zm0-8.5636c0.57965 0.57965 1.1593 1.1594 1.7389 1.7391l0.19848-0.1303c0.54498-0.34682 1.2028-0.53104 1.6858-0.65512 3.1e-4 -0.80644-3e-3 -1.6128 6.3e-4 -2.4192l-0.38519 0.0312c-0.81162 0.0672-2.1263 0.60512-2.9133 1.1919zm4.0375 10.112 0.40154-0.0585c0.97136-0.14157 2.2812-0.69083 2.9027-1.2172l0.32257-0.22169c-0.57276-0.56771-1.1686-1.169-1.7391-1.7389-0.42925 0.25378-1.0246 0.58873-1.6552 0.72885l-0.23249 0.0482v2.4593zm0-9.2019 0.23249 0.0482c0.63059 0.14013 1.226 0.47524 1.6552 0.72902 0.57052-0.56995 1.1663-1.1712 1.7391-1.7389l-0.32257-0.22169c-0.62145-0.52637-1.9313-1.0756-2.9027-1.2172l-0.40154-0.0585v2.4591z"/>
   <path d="m190.92 114.46-0.0585-0.40153c-0.14158-0.97137-0.69084-2.2812-1.2172-2.9027l-0.2217-0.32241c-0.56771 0.57276-1.1688 1.1684-1.7388 1.7389 0.25378 0.42925 0.58873 1.0246 0.72886 1.6552l0.0482 0.23248h2.4591zm0 0.33876h-2.4591l-0.0482 0.23249c-0.14013 0.63059-0.47508 1.226-0.72886 1.6552 0.56995 0.57053 1.171 1.1661 1.7388 1.7389l0.22169-0.32241c0.52637-0.62145 1.0756-1.9313 1.2172-2.9027zm-1.9233-4.4511-0.32535-0.24262c-0.78697-0.58675-2.1017-1.1245-2.9133-1.1917l-0.38519-0.0314c4e-3 0.80644 2.5e-4 1.6129 6.3e-4 2.4194 0.48297 0.12408 1.1408 0.30815 1.6858 0.65495l0.19848 0.13031c0.57965-0.57965 1.1593-1.1593 1.7389-1.7389zm0 8.5636c-0.57965-0.57965-1.1593-1.1594-1.7389-1.7391l-0.19848 0.1303c-0.54498 0.34682-1.2028 0.53104-1.6858 0.65512-3.2e-4 0.80644 3e-3 1.6128-6.4e-4 2.4192l0.38519-0.0312c0.81162-0.0672 2.1263-0.60512 2.9133-1.1919zm-4.0375-10.112-0.40154 0.0585c-0.97136 0.14157-2.2812 0.69083-2.9027 1.2172l-0.32257 0.22169c0.57276 0.56771 1.1686 1.169 1.7391 1.7389 0.42925-0.25378 1.0246-0.58873 1.6552-0.72885l0.23249-0.0482v-2.4593zm0 9.2019-0.23249-0.0482c-0.63059-0.14013-1.226-0.47524-1.6552-0.72902-0.57052 0.56995-1.1663 1.1712-1.7391 1.7389l0.32257 0.2217c0.62145 0.52637 1.9313 1.0756 2.9027 1.2172l0.40154 0.0585v-2.4591z"/>
  </g>
 </g>
</svg>
